<svg width="64" height="64" xmlns="http://www.w3.org/2000/svg">
	<g>
		<title>Background</title>
		<rect fill="none" id="canvas_background" height="64" width="64" y="0" x="0"/>
	</g>
	<g>
		<title>Mail</title>
		<rect id="svg_3" height="64" width="65" y="0" x="0" stroke-width="0" stroke="#ffffff" fill="#008cff"/>
		<g stroke="null" id="MAIL__x2F__INCOMING_1_">
			<g stroke="null" id="MAIL__x2F__INCOMING">
				<g stroke="null" id="svg_1">
					<path stroke="#000" fill="#ffffff" stroke-width="0" id="svg_2"
						  d="m30.661928,30.275656c0.34256,0.324738 0.81571,0.526052 1.33807,0.526052c0.522985,0 0.995508,-0.201315 1.338072,-0.526649l4.416065,-4.194031c0.342567,-0.324738 0.554543,-0.774099 0.554543,-1.270792c0,-0.992785 -0.84726,-1.79744 -1.892601,-1.79744c-0.522362,0 -0.995514,0.201315 -1.33807,0.526651l-1.185406,1.125196l0,-8.242464c0,-0.992785 -0.847252,-1.79744 -1.892603,-1.79744s-1.892603,0.804654 -1.892603,1.79744l0,8.242464l-1.185402,-1.125795c-0.342562,-0.324738 -0.815712,-0.526052 -1.338068,-0.526052c-1.045349,0 -1.892603,0.804655 -1.892603,1.79744c0,0.496094 0.211973,0.945456 0.554529,1.270792l4.416077,4.194628zm20.896227,-6.795527c-0.334995,-0.28759 -0.775341,-0.467333 -1.262997,-0.467333l-10.618767,0c0.325531,0.530844 0.524891,1.13958 0.524891,1.79744c0,0.992786 -0.42395,1.891506 -1.10844,2.542181l-4.416069,4.194025c-0.685127,0.650072 -1.631424,1.05271 -2.676775,1.05271s-1.99165,-0.402637 -2.676773,-1.05271l-4.416069,-4.194025c-0.684492,-0.650675 -1.108435,-1.549395 -1.108435,-2.542181c0,-0.65786 0.199982,-1.266596 0.524879,-1.79744l-10.618761,0c-0.487655,0 -0.927376,0.179743 -1.262997,0.467333l19.558155,14.511337l19.558157,-14.511337zm0.064983,0.051531l-12.291199,11.308893l12.345448,13.957726c0.314175,-0.320541 0.510372,-0.747734 0.510372,-1.220459l0,-22.767584c0,-0.500286 -0.216385,-0.952642 -0.564621,-1.278576zm-39.246908,0c-0.34761,0.325933 -0.563993,0.77829 -0.563993,1.278576l0,22.767584c0,0.472725 0.196202,0.899319 0.510376,1.220459l12.345442,-13.957726l-12.291824,-11.308893zm19.623768,18.054689l-5.132738,-4.721882l-14.46012,12.016491c0.339412,0.304974 0.794267,0.494301 1.2977,0.494301l36.590319,0c0.503433,0 0.958923,-0.189327 1.297695,-0.494301l-14.459492,-12.016491l-5.133364,4.721882z"/>
				</g>
			</g>
		</g>
	</g>
</svg>
